<?xml version="1.0" standalone="no"?>
<!DOCTYPE svg PUBLIC "-//W3C//DTD SVG 20010904//EN"
 "http://www.w3.org/TR/2001/REC-SVG-20010904/DTD/svg10.dtd">
<svg version="1.0" xmlns="http://www.w3.org/2000/svg"
 width="1279.000000pt" height="309.000000pt" viewBox="0 0 1279.000000 309.000000"
 preserveAspectRatio="xMidYMid meet">
<metadata>
Created by potrace 1.15, written by Peter Selinger 2001-2017
</metadata>
<g transform="translate(0.000000,309.000000) scale(0.100000,-0.100000)"
fill="#000000" stroke="none">
<path d="M1006 3008 c-8 -87 -33 -131 -103 -179 -106 -73 -187 -77 -417 -19
-114 29 -179 40 -232 40 l-74 0 0 -50 c0 -45 4 -55 40 -93 21 -24 43 -54 48
-68 6 -13 13 -82 17 -152 9 -160 10 -161 152 -171 123 -9 147 -22 274 -153
123 -125 133 -144 126 -242 -4 -70 -68 -307 -96 -359 -6 -11 -31 -32 -55 -46
-25 -14 -54 -39 -65 -55 -20 -28 -25 -29 -128 -36 -147 -9 -180 -19 -227 -68
-55 -58 -133 -181 -206 -325 -71 -142 -70 -152 14 -152 89 1 154 45 221 150
13 21 27 50 31 63 13 54 34 62 173 61 202 -1 309 -30 331 -89 5 -14 14 -93 20
-177 6 -84 15 -191 21 -237 6 -47 9 -121 7 -165 -5 -106 -28 -152 -88 -183
-85 -44 -136 -133 -108 -191 19 -40 97 -63 238 -69 63 -3 131 -1 150 4 l35 9
1 155 2 154 51 125 c55 134 85 184 138 230 41 37 81 39 116 6 27 -25 36 -53
57 -176 23 -136 24 -197 5 -241 -20 -44 -32 -47 -94 -19 -23 11 -47 17 -52 14
-35 -21 -60 -153 -40 -202 24 -56 30 -57 438 -55 422 2 413 0 434 75 7 27 9
81 6 143 -10 191 -88 418 -213 627 -41 67 -81 145 -89 172 -25 83 -107 201
-242 348 -66 71 -77 97 -102 227 -19 97 -39 153 -120 339 -52 118 -60 178 -61
432 -1 176 -3 213 -20 260 -24 69 -24 101 0 170 31 88 21 220 -16 220 -7 0
-28 -28 -45 -62 -50 -100 -70 -102 -119 -17 -39 68 -72 99 -105 99 -20 0 -23
-6 -29 -72z"/>
<path d="M5307 3073 c-3 -4 -8 -35 -12 -68 -10 -82 -30 -120 -83 -161 -107
-81 -252 -93 -437 -35 -309 98 -377 71 -263 -103 l53 -80 9 -151 9 -152 124
-10 c147 -13 158 -18 292 -151 119 -117 125 -131 118 -256 -4 -80 -12 -122
-40 -201 -56 -164 -73 -187 -188 -249 -58 -32 -74 -36 -140 -36 -117 -1 -147
-11 -203 -72 -65 -70 -114 -147 -187 -292 -38 -75 -59 -129 -57 -145 3 -25 5
-26 76 -25 86 0 119 19 141 80 37 104 49 123 90 143 69 36 167 54 261 48 88
-5 209 -37 233 -62 10 -10 17 -52 21 -142 4 -70 16 -183 27 -251 21 -138 24
-233 8 -283 -25 -80 -32 -89 -73 -108 -48 -21 -126 -102 -126 -130 0 -56 113
-128 217 -139 67 -7 197 -2 206 8 3 3 9 79 15 170 11 180 21 220 92 367 47 97
105 163 143 163 31 0 103 -53 135 -100 23 -33 24 -41 20 -160 -4 -99 -9 -135
-26 -172 -11 -27 -24 -48 -28 -48 -4 0 -18 9 -30 21 l-22 20 -60 -30 c-84 -43
-102 -64 -102 -123 0 -47 1 -48 45 -69 25 -12 48 -25 51 -30 3 -5 179 -9 393
-9 l388 0 27 59 c73 164 -3 491 -184 786 -29 46 -71 131 -95 189 -52 126 -75
159 -195 291 -50 55 -98 113 -107 129 -8 16 -26 83 -39 150 -21 102 -32 133
-74 208 l-50 88 0 110 c0 71 -7 146 -21 212 -15 77 -22 169 -29 363 l-9 260
25 37 c13 21 24 41 24 46 0 4 -17 25 -38 45 -67 66 -112 44 -112 -53 0 -44
-10 -55 -46 -46 -19 5 -32 21 -50 64 -14 31 -29 64 -33 72 -9 16 -76 26 -84
13z"/>
<path d="M9645 3068 c-2 -7 -7 -44 -10 -83 -6 -63 -10 -72 -44 -103 -49 -45
-187 -111 -249 -119 -40 -4 -73 2 -168 30 -148 45 -251 67 -315 67 l-49 0 0
-57 c0 -44 5 -62 21 -79 21 -23 59 -159 79 -284 18 -110 16 -109 158 -129 121
-18 274 -90 328 -153 l27 -33 -7 -245 c-8 -278 -8 -280 -103 -372 -76 -73
-110 -86 -247 -94 l-119 -7 -42 -41 c-33 -32 -48 -58 -69 -121 -21 -65 -39
-95 -91 -158 -73 -88 -108 -148 -103 -180 4 -27 60 -38 131 -27 53 8 69 24 87
85 33 115 70 151 173 175 61 13 310 14 335 1 28 -15 58 -93 76 -201 22 -130
32 -409 17 -479 -13 -61 -103 -254 -134 -289 l-21 -22 35 -36 c59 -61 70 -64
264 -64 96 0 175 2 175 6 0 3 -18 35 -40 71 -22 37 -40 74 -40 82 0 9 14 36
31 61 65 97 69 110 69 239 0 112 2 122 23 141 41 39 141 100 164 100 12 0 38
-14 58 -31 l35 -31 0 -210 0 -209 -30 21 c-28 20 -31 20 -62 4 -61 -31 -68
-42 -68 -111 0 -67 18 -116 45 -127 9 -3 180 -6 380 -6 l363 0 41 47 c50 56
55 75 48 162 -6 65 -155 540 -193 614 -9 17 -58 91 -108 162 -50 72 -113 173
-141 224 -27 51 -79 127 -114 170 -78 94 -89 115 -140 274 -56 178 -69 260
-76 502 -6 170 -11 231 -31 318 -14 59 -27 156 -30 215 -6 104 -5 108 20 141
35 47 34 88 -5 137 -60 76 -79 74 -121 -13 -18 -37 -41 -69 -50 -71 -22 -4
-83 51 -114 104 -26 45 -41 54 -49 32z"/>
<path d="M12273 2778 c-10 -14 -58 -129 -68 -165 -3 -12 -50 -69 -104 -126
-53 -57 -102 -117 -108 -133 -6 -16 -15 -65 -21 -110 -12 -88 -36 -169 -84
-278 -53 -122 -84 -162 -207 -265 -129 -109 -332 -314 -355 -359 -18 -36 -97
-338 -125 -480 -32 -161 -49 -179 -75 -77 -9 36 -32 105 -52 152 -43 104 -53
188 -54 444 0 139 4 198 20 274 26 126 26 236 0 293 -24 54 -79 81 -163 82
-74 0 -78 -10 -41 -103 28 -68 29 -79 27 -212 0 -81 -11 -212 -24 -310 -18
-131 -23 -219 -23 -385 -1 -287 11 -332 119 -450 35 -38 45 -59 62 -130 12
-47 52 -154 89 -238 l69 -152 405 2 405 3 3 37 c4 50 -17 87 -88 155 l-60 57
20 21 c16 17 20 35 20 87 0 51 5 72 23 99 27 40 91 79 129 79 38 0 53 -33 77
-176 11 -65 29 -145 40 -176 11 -31 23 -82 26 -112 12 -96 67 -111 185 -49
l70 37 0 72 c0 100 -14 117 -106 121 -124 7 -118 1 -111 96 12 161 83 331 241
577 199 309 222 413 141 648 -42 121 -45 138 -45 230 0 122 4 128 120 185 78
39 86 46 112 97 52 102 32 146 -82 174 -69 18 -186 86 -194 114 -3 10 -9 43
-15 74 -11 61 -64 176 -114 246 -31 43 -65 55 -84 30z"/>
<path d="M7960 2705 c-6 -8 -31 -26 -55 -39 -32 -19 -45 -34 -50 -58 -5 -23
-39 -65 -115 -143 l-108 -110 -5 -105 c-5 -119 -28 -187 -113 -330 -77 -128
-113 -170 -212 -238 -86 -59 -97 -72 -170 -180 -43 -64 -93 -153 -112 -197
-60 -143 -140 -368 -156 -440 -37 -162 -58 -180 -85 -70 -10 39 -36 113 -59
165 l-42 95 5 285 c4 208 9 302 21 350 21 89 20 156 -4 225 -36 104 -37 105
-141 105 l-91 0 5 -37 c2 -21 14 -65 27 -98 21 -56 22 -70 16 -213 -3 -85 -14
-204 -23 -265 -13 -83 -17 -180 -18 -372 0 -302 3 -316 99 -443 41 -54 62 -94
86 -169 18 -54 54 -147 80 -208 27 -60 52 -122 55 -138 l7 -27 409 0 409 0 0
60 0 60 -70 67 -71 66 31 26 c28 24 33 36 49 132 10 58 21 111 25 117 9 15 70
16 97 2 10 -6 30 -33 44 -60 20 -40 25 -64 25 -129 0 -56 7 -103 24 -158 13
-43 27 -93 31 -110 15 -76 117 -99 193 -43 23 16 48 43 57 59 22 43 20 116 -4
140 -19 19 -33 23 -131 36 -63 8 -70 17 -70 93 0 62 3 70 51 144 43 64 57 99
80 190 33 126 56 167 136 235 29 25 62 60 73 79 27 43 90 321 90 397 0 42 -8
74 -29 122 -41 90 -54 160 -49 251 6 106 29 147 144 263 101 101 110 121 79
180 -12 23 -23 30 -62 36 -26 3 -64 17 -84 30 -36 23 -100 112 -169 235 -40
71 -105 150 -125 150 -7 0 -18 -7 -25 -15z"/>
<path d="M3669 2694 c-7 -9 -31 -27 -51 -40 -21 -14 -44 -39 -52 -59 -11 -24
-34 -47 -84 -79 l-69 -44 -7 -59 c-4 -32 -18 -95 -32 -139 -17 -57 -24 -106
-24 -161 l0 -79 -46 -44 c-25 -25 -77 -86 -114 -136 -47 -61 -96 -112 -152
-155 -157 -122 -213 -189 -270 -317 -42 -97 -222 -540 -244 -601 -18 -53 -24
-60 -32 -45 -21 40 -33 105 -48 264 -8 91 -22 193 -30 228 -19 85 -18 139 6
252 22 103 38 388 26 454 -4 21 -18 49 -31 62 -22 22 -32 24 -125 24 -122 0
-124 -3 -87 -109 33 -91 33 -107 5 -247 -19 -99 -22 -149 -25 -546 -5 -498
-12 -454 90 -565 90 -98 142 -170 170 -233 25 -57 67 -213 67 -249 0 -21 2
-21 440 -21 l440 0 0 48 c0 27 -6 57 -14 67 -8 11 -52 44 -97 75 -57 37 -85
62 -87 77 -3 22 99 196 150 256 26 30 29 31 42 14 8 -11 17 -38 21 -60 12 -82
29 -143 60 -222 18 -44 38 -107 45 -140 13 -64 26 -95 44 -107 16 -11 124 -10
146 2 10 5 21 24 25 42 4 18 18 50 32 72 l25 38 -21 22 c-11 11 -24 33 -30 47
-8 22 -18 28 -56 33 -91 14 -88 60 36 488 18 61 28 76 121 175 55 59 118 135
139 167 l39 59 0 191 0 190 -56 82 -56 81 17 89 c9 48 23 103 30 121 8 19 57
76 110 127 86 85 95 98 95 131 0 20 -4 45 -10 55 -10 20 -59 40 -96 40 -33 0
-97 60 -160 150 -29 41 -74 100 -101 130 -26 31 -60 70 -74 88 -23 31 -27 32
-40 16z"/>
</g>
</svg>
