<?xml version="1.0" standalone="no"?>
<!DOCTYPE svg PUBLIC "-//W3C//DTD SVG 20010904//EN"
 "http://www.w3.org/TR/2001/REC-SVG-20010904/DTD/svg10.dtd">
<svg version="1.0" xmlns="http://www.w3.org/2000/svg"
 width="1280.000000pt" height="640.000000pt" viewBox="0 0 1280.000000 640.000000"
 preserveAspectRatio="xMidYMid meet">
<g transform="translate(0.000000,640.000000) scale(0.100000,-0.100000)"
fill="#000000" stroke="none">
<path d="M1016 4704 c-3 -9 -6 -42 -6 -73 0 -48 -5 -65 -29 -99 -17 -22 -51
-55 -77 -72 -102 -71 -199 -77 -383 -25 -148 42 -218 55 -288 55 l-53 0 0 -48
c0 -43 4 -52 40 -87 62 -60 70 -86 70 -223 l0 -120 31 -26 c28 -24 39 -26 117
-26 67 0 96 -5 131 -21 54 -26 232 -204 263 -263 28 -55 21 -151 -20 -276 -17
-52 -38 -120 -46 -151 -17 -61 -26 -72 -95 -109 -29 -16 -47 -34 -51 -50 -6
-25 -7 -25 -135 -30 -150 -7 -173 -15 -232 -87 -65 -78 -103 -140 -180 -288
-68 -130 -72 -141 -56 -153 24 -18 109 -10 159 16 46 24 131 134 146 190 5 20
17 43 26 50 25 19 279 16 361 -4 133 -33 136 -39 145 -244 3 -74 12 -182 21
-240 22 -143 20 -203 -7 -279 -21 -59 -26 -65 -63 -78 -94 -32 -160 -159 -107
-206 36 -33 131 -51 254 -50 175 2 162 -12 153 159 l-7 144 58 147 c53 132 65
154 114 206 60 61 80 68 130 42 36 -18 60 -62 60 -107 0 -18 9 -73 20 -122 25
-112 25 -159 0 -213 -22 -49 -32 -51 -95 -21 l-45 22 -21 -20 c-23 -23 -40
-118 -30 -167 4 -17 19 -40 35 -51 27 -21 35 -21 409 -18 377 4 382 4 399 25
93 118 -8 555 -190 825 -48 71 -70 115 -83 165 -14 55 -31 86 -90 165 -40 53
-105 131 -144 172 -80 84 -87 101 -110 244 -13 80 -26 122 -74 225 -104 222
-105 228 -106 511 0 231 -1 248 -23 298 -27 64 -27 94 -2 149 25 56 33 148 17
192 -14 40 -32 50 -40 24 -3 -10 -16 -36 -28 -58 -12 -22 -25 -47 -29 -55 -4
-8 -19 -16 -33 -18 -23 -3 -30 4 -56 56 -43 86 -109 137 -125 96z"/>
<path d="M5313 4708 c-6 -7 -12 -42 -15 -78 -3 -53 -9 -73 -32 -103 -41 -53
-108 -94 -186 -111 -111 -26 -154 -21 -325 34 -203 65 -295 69 -295 11 0 -25
13 -49 85 -152 29 -42 30 -46 35 -193 l5 -151 115 -6 c73 -3 129 -11 153 -22
42 -18 223 -193 256 -247 17 -28 21 -51 21 -115 0 -85 -16 -153 -71 -303 -35
-97 -52 -117 -156 -177 -65 -38 -72 -40 -163 -42 -52 -1 -104 -4 -115 -7 -31
-8 -103 -84 -157 -166 -60 -90 -168 -304 -168 -331 0 -35 86 -37 165 -5 29 12
36 23 59 94 15 44 35 87 44 95 52 47 219 84 321 72 108 -13 217 -48 231 -76 6
-10 10 -70 10 -134 0 -81 8 -157 25 -251 29 -157 31 -208 9 -289 -20 -77 -38
-105 -69 -105 -25 0 -89 -57 -122 -107 -14 -20 -14 -26 1 -47 23 -36 78 -75
136 -97 52 -20 145 -25 234 -13 l46 7 0 127 c0 161 11 220 66 350 67 158 134
240 187 226 48 -12 116 -67 138 -112 19 -41 21 -57 16 -157 -5 -113 -25 -194
-53 -218 -12 -10 -19 -7 -40 12 l-25 23 -64 -32 c-77 -38 -97 -65 -93 -124 3
-37 6 -43 28 -46 14 -2 39 -15 57 -28 l32 -24 374 0 374 0 31 61 c28 53 32 72
32 136 0 189 -90 453 -225 658 -30 45 -67 119 -84 170 -44 125 -67 159 -185
283 -57 60 -111 123 -121 141 -9 18 -25 85 -36 149 -18 106 -24 126 -72 207
l-52 90 3 105 c2 84 -3 129 -24 225 -23 107 -27 147 -31 375 l-5 255 25 36 25
37 -38 41 c-21 22 -47 41 -58 41 -37 0 -47 -25 -51 -127 -1 -20 -40 -26 -64
-10 -22 14 -44 57 -63 122 -7 24 -16 31 -40 33 -17 2 -35 -3 -41 -10z"/>
<path d="M9646 4698 c-3 -13 -6 -50 -6 -82 0 -56 -2 -61 -40 -97 -49 -47 -166
-105 -242 -121 -56 -12 -61 -11 -201 35 -137 44 -313 77 -337 62 -5 -3 -10
-28 -10 -54 0 -38 5 -52 25 -71 14 -13 27 -39 31 -59 3 -20 17 -76 30 -126 13
-49 24 -109 24 -131 0 -69 20 -84 125 -94 92 -8 152 -27 240 -75 86 -48 123
-76 134 -103 7 -19 8 -102 3 -267 l-8 -240 -29 -54 c-31 -56 -97 -116 -166
-152 -31 -15 -59 -19 -147 -19 l-109 0 -45 -40 c-47 -41 -56 -58 -83 -153 -13
-46 -29 -72 -82 -130 -67 -73 -120 -165 -109 -192 8 -21 143 -21 173 0 14 10
31 44 47 98 29 94 42 109 117 139 45 18 82 22 214 26 153 4 161 3 187 -18 52
-40 90 -256 92 -515 0 -151 -1 -164 -27 -234 -15 -41 -34 -82 -42 -91 -8 -9
-21 -36 -30 -60 -9 -25 -25 -55 -37 -67 l-22 -23 39 -40 c21 -21 50 -44 64
-50 16 -6 90 -9 194 -8 l167 3 -45 67 c-25 37 -45 76 -45 87 0 10 20 47 45 82
66 93 68 100 60 220 -5 69 -3 114 3 126 12 22 161 123 180 123 28 0 93 -42
102 -66 11 -27 14 -417 4 -427 -4 -3 -19 3 -34 15 l-28 20 -45 -20 c-42 -19
-46 -23 -52 -67 -11 -67 0 -116 30 -143 26 -22 27 -22 383 -22 l358 0 47 48
c32 33 49 60 53 83 9 56 -13 165 -56 278 -21 57 -58 167 -81 245 -47 161 -50
167 -175 336 -53 71 -112 167 -139 222 -33 69 -65 117 -109 165 -77 83 -82 93
-139 269 -65 197 -77 279 -77 509 0 182 -2 199 -30 308 -23 89 -30 141 -32
230 -3 114 -3 116 25 144 40 43 36 77 -18 138 -37 41 -47 48 -61 39 -21 -12
-31 -30 -39 -67 -6 -30 -46 -77 -65 -77 -21 0 -110 93 -118 123 -10 38 -27 45
-36 15z"/>
<path d="M12277 4413 c-8 -10 -20 -36 -26 -58 -6 -22 -18 -49 -26 -59 -8 -11
-15 -31 -15 -45 0 -19 -27 -52 -105 -129 -113 -112 -125 -134 -125 -231 0 -97
-105 -366 -175 -450 -15 -17 -80 -74 -145 -126 -102 -82 -304 -288 -333 -341
-18 -33 -119 -433 -126 -500 -7 -71 -30 -124 -54 -124 -8 0 -17 24 -24 64 -6
35 -30 106 -53 157 -42 93 -43 96 -51 249 -15 277 -12 364 16 478 58 238 13
358 -138 369 -88 6 -97 -3 -68 -69 51 -115 50 -114 41 -299 -5 -96 -16 -210
-24 -254 -25 -129 -38 -393 -27 -531 13 -157 34 -213 105 -279 56 -52 59 -58
86 -188 6 -32 40 -116 76 -188 35 -71 64 -139 64 -150 0 -19 10 -19 404 -19
l404 0 5 23 c14 54 -9 100 -85 169 -40 37 -71 68 -68 70 3 2 14 8 25 14 17 10
20 20 17 76 -5 91 24 141 106 182 83 43 117 2 136 -166 9 -75 22 -134 40 -175
16 -38 26 -81 26 -110 0 -54 5 -65 37 -82 36 -19 66 -13 123 24 30 19 62 35
72 35 16 0 18 9 18 69 0 59 -4 74 -23 97 -22 26 -30 28 -106 28 -60 1 -85 5
-92 16 -5 9 -7 46 -3 90 15 172 87 339 255 592 98 147 141 237 164 340 23 103
16 152 -35 283 -39 99 -44 121 -48 213 -6 153 -6 153 158 225 49 21 57 29 68
64 6 22 21 48 32 58 25 23 25 27 -4 73 -21 34 -29 38 -90 49 -50 8 -84 22
-132 54 -75 48 -84 62 -84 122 0 75 -126 307 -167 307 -6 0 -17 -8 -26 -17z"/>
<path d="M7962 4340 c-7 -11 -33 -30 -57 -42 -37 -18 -45 -27 -45 -49 0 -33
-35 -76 -135 -168 -44 -40 -83 -80 -87 -89 -4 -9 -4 -51 -1 -92 5 -71 3 -81
-37 -183 -43 -112 -152 -289 -206 -338 -16 -14 -54 -41 -84 -59 -80 -49 -95
-65 -170 -175 -88 -131 -94 -143 -190 -395 -56 -149 -84 -235 -89 -281 -7 -69
-31 -119 -56 -119 -15 0 -19 14 -29 83 -3 21 -27 86 -53 145 l-48 107 1 275
c1 244 3 286 23 367 11 51 21 106 21 122 0 42 -37 154 -61 185 -19 24 -26 26
-105 26 -82 0 -84 -1 -84 -24 0 -13 12 -50 27 -82 27 -58 28 -62 25 -224 -2
-104 -10 -211 -23 -290 -12 -73 -23 -200 -26 -305 -9 -279 12 -385 96 -485 60
-72 71 -93 103 -202 16 -57 49 -142 74 -191 24 -48 48 -104 52 -125 l8 -37
407 -3 407 -2 0 56 0 56 -75 71 c-41 40 -75 75 -75 78 0 4 12 10 26 13 33 9
50 50 59 141 4 39 11 85 17 103 9 30 13 32 52 32 56 0 87 -25 115 -90 18 -41
20 -61 15 -114 -6 -55 -3 -75 25 -154 17 -50 31 -101 31 -115 0 -53 67 -90
134 -73 32 8 93 61 112 97 17 33 18 82 3 111 -16 29 -70 48 -138 48 -73 0 -81
10 -81 103 0 61 3 68 45 127 58 78 71 106 90 205 22 113 46 155 132 232 41 37
80 78 88 93 19 37 85 338 85 389 0 26 -11 63 -29 100 -45 87 -64 173 -59 261
7 116 35 167 151 274 106 98 113 114 77 174 -16 26 -26 32 -55 32 -20 0 -51 6
-69 14 -46 19 -122 116 -169 216 -35 73 -124 190 -146 190 -3 0 -12 -9 -19
-20z"/>
<path d="M3665 4319 c-11 -12 -34 -28 -52 -35 -21 -9 -33 -23 -38 -43 -7 -34
-32 -57 -100 -96 -62 -35 -65 -39 -65 -100 0 -29 -13 -85 -30 -135 -24 -66
-30 -101 -30 -163 l0 -79 -69 -72 c-37 -39 -84 -96 -103 -127 -38 -59 -78 -97
-196 -183 -128 -93 -185 -186 -306 -502 -46 -120 -100 -253 -120 -294 -20 -41
-36 -84 -36 -95 0 -32 -14 -49 -27 -33 -26 33 -44 125 -53 264 -5 87 -17 184
-29 232 -27 106 -26 141 3 254 28 112 45 399 26 467 -19 70 -39 81 -152 81
-117 0 -123 -6 -88 -84 46 -105 47 -112 15 -278 -29 -150 -29 -161 -33 -538
-2 -212 0 -404 3 -427 5 -36 20 -58 97 -140 116 -124 162 -196 193 -297 19
-64 45 -181 45 -203 0 -2 195 -2 433 -1 l432 3 3 34 c6 58 -15 88 -87 128 -80
44 -121 80 -121 107 0 11 26 59 58 107 31 48 66 102 77 120 52 83 88 69 98
-38 7 -73 27 -138 71 -238 15 -33 31 -89 35 -124 10 -81 31 -101 105 -101 62
0 96 20 96 58 0 14 12 43 27 64 l26 39 -22 20 c-12 11 -24 34 -28 50 -5 27 -9
29 -49 29 -35 0 -46 5 -56 23 -20 37 -11 140 21 235 17 48 37 123 46 167 26
124 44 157 145 252 54 51 108 115 135 157 l44 72 -2 184 -3 185 -48 65 c-26
36 -52 75 -57 87 -9 25 21 184 46 237 9 19 60 75 112 123 94 86 95 87 90 126
-7 54 -29 74 -88 79 -43 4 -57 12 -96 49 -25 24 -66 76 -91 114 -25 39 -68 95
-96 125 -29 30 -61 68 -72 83 l-20 28 -19 -22z"/>
</g>
</svg>
