<?xml version="1.0" standalone="no"?>
<!DOCTYPE svg PUBLIC "-//W3C//DTD SVG 20010904//EN"
 "http://www.w3.org/TR/2001/REC-SVG-20010904/DTD/svg10.dtd">
<svg version="1.0" xmlns="http://www.w3.org/2000/svg"
 width="1280.000000pt" height="640.000000pt" viewBox="0 0 1280.000000 640.000000"
 preserveAspectRatio="xMidYMid meet">
<g transform="translate(0.000000,640.000000) scale(0.100000,-0.100000)"
fill="#000000" stroke="none">
<path d="M12226 5578 c-229 -221 -423 -404 -431 -406 -7 -2 -60 19 -117 46
-252 122 -537 174 -818 151 -384 -31 -698 -167 -941 -409 -104 -103 -160 -179
-220 -299 -38 -77 -89 -234 -89 -276 0 -33 -32 -68 -103 -113 -224 -141 -560
-262 -1132 -406 -278 -70 -547 -181 -945 -391 -331 -174 -497 -243 -678 -280
-42 -9 -360 -65 -707 -125 -346 -60 -967 -168 -1380 -240 -1039 -181 -2210
-386 -3535 -616 -619 -108 -1126 -197 -1128 -199 -2 -1 3 -33 9 -69 l13 -67
240 6 c133 3 579 10 991 15 413 6 1209 17 1770 25 561 8 1373 19 1805 25 432
5 893 13 1025 16 l240 6 130 151 c168 194 514 543 679 683 237 202 467 365
711 505 437 250 937 410 1484 474 153 18 545 39 574 31 14 -4 42 -40 77 -97
272 -450 896 -697 1500 -593 602 103 1041 510 1100 1021 26 223 -45 482 -184
671 -25 34 -46 68 -46 75 0 7 151 198 335 425 l334 411 -65 118 c-36 65 -70
122 -74 126 -4 5 -195 -173 -424 -395z m-1005 -432 c126 -32 225 -75 324 -141
153 -102 283 -256 350 -414 56 -133 69 -201 69 -356 0 -156 -13 -223 -69 -357
-113 -267 -366 -479 -664 -554 -520 -132 -1063 154 -1215 643 -58 188 -51 412
21 593 128 323 438 560 798 609 109 15 276 5 386 -23z m-5023 -2412 c85 -35
142 -120 142 -214 0 -78 -49 -174 -78 -156 -13 8 -232 353 -232 365 0 14 20
19 78 20 29 1 69 -6 90 -15z m-124 -236 c131 -204 131 -208 36 -208 -131 0
-230 98 -230 228 0 62 15 107 48 145 8 9 19 17 23 17 4 0 59 -82 123 -182z"/>
<path d="M10528 2900 c-123 -105 -129 -109 -185 -115 -380 -41 -621 -152 -894
-413 -123 -117 -137 -124 -339 -166 -512 -105 -972 -113 -1410 -25 -237 48
-508 144 -733 262 l-119 62 -106 -110 c-227 -233 -445 -466 -441 -469 2 -3 51
-1 109 4 406 32 967 37 1250 10 528 -50 917 -168 1222 -370 58 -38 141 -103
186 -145 75 -70 82 -80 102 -148 53 -173 150 -330 294 -473 255 -255 576 -384
952 -384 288 0 536 73 764 224 306 204 493 504 532 856 49 441 -202 891 -624
1120 -59 32 -106 73 -248 215 -96 96 -177 175 -180 175 -3 -1 -62 -50 -132
-110z m19 -415 c391 -63 709 -341 804 -700 30 -111 30 -308 1 -416 -56 -207
-188 -397 -365 -523 -90 -64 -236 -132 -352 -163 -90 -24 -118 -27 -270 -27
-143 0 -183 3 -252 22 -309 81 -542 261 -668 517 -60 122 -86 237 -86 380 0
230 80 428 240 598 241 255 590 370 948 312z"/>
</g>
</svg>
